<svg xmlns="http://www.w3.org/2000/svg" viewBox="0 0 220 220" role="img" aria-labelledby="title desc">
  <title id="title">Trace the Firefly celebration pose</title>
  <desc id="desc">Trace celebrates with both hands up and confetti.</desc>
  <defs>
    <linearGradient id="wing" x1="0" x2="1" y1="0" y2="1">
      <stop offset="0%" stop-color="#eef2ff" stop-opacity="0.96"/>
      <stop offset="100%" stop-color="#cad6ff" stop-opacity="0.78"/>
    </linearGradient>
    <radialGradient id="glow" cx="50%" cy="50%" r="50%">
      <stop offset="0%" stop-color="#ffe38d"/>
      <stop offset="100%" stop-color="#fb8c00"/>
    </radialGradient>
  </defs>
  <ellipse cx="74" cy="104" rx="29" ry="40" fill="url(#wing)" stroke="#93a5e8" stroke-width="3"/>
  <ellipse cx="146" cy="102" rx="29" ry="40" fill="url(#wing)" stroke="#93a5e8" stroke-width="3"/>
  <ellipse cx="110" cy="121" rx="56" ry="62" fill="#3949ab"/>
  <ellipse cx="110" cy="152" rx="42" ry="37" fill="url(#glow)"/>
  <circle cx="110" cy="70" r="33" fill="#3949ab"/>
  <circle cx="97" cy="67" r="15" fill="#fff"/>
  <circle cx="123" cy="67" r="15" fill="#fff"/>
  <circle cx="97" cy="68" r="7" fill="#1d2a66"/>
  <circle cx="123" cy="68" r="7" fill="#1d2a66"/>
  <circle cx="97" cy="68" r="2.5" fill="#fff"/>
  <circle cx="123" cy="68" r="2.5" fill="#fff"/>
  <path d="M92 86c9 11 27 11 36 0" fill="none" stroke="#1d2a66" stroke-linecap="round" stroke-width="4"/>
  <circle cx="97" cy="67" r="18" fill="none" stroke="#f5f7ff" stroke-width="4"/>
  <circle cx="123" cy="67" r="18" fill="none" stroke="#f5f7ff" stroke-width="4"/>
  <line x1="115" y1="67" x2="105" y2="67" stroke="#f5f7ff" stroke-width="4"/>
  <path d="M96 42c-8-16-19-19-27-17" fill="none" stroke="#3949ab" stroke-linecap="round" stroke-width="4"/>
  <path d="M124 42c8-16 19-19 27-17" fill="none" stroke="#3949ab" stroke-linecap="round" stroke-width="4"/>
  <circle cx="68" cy="25" r="5" fill="#fb8c00"/>
  <circle cx="152" cy="25" r="5" fill="#fb8c00"/>
  <path d="M74 104c-10-17-11-36-3-52" fill="none" stroke="#3949ab" stroke-linecap="round" stroke-width="8"/>
  <path d="M146 104c10-17 11-36 3-52" fill="none" stroke="#3949ab" stroke-linecap="round" stroke-width="8"/>
  <path d="M92 106c-8 15-10 29-9 42" fill="none" stroke="#3949ab" stroke-linecap="round" stroke-width="8"/>
  <path d="M128 104c8 15 10 29 9 42" fill="none" stroke="#3949ab" stroke-linecap="round" stroke-width="8"/>
  <path d="M82 94c17 10 41 10 58 0" fill="none" stroke="#fb8c00" stroke-width="8"/>
  <circle cx="94" cy="94" r="3.5" fill="#eef2ff"/>
  <circle cx="110" cy="94" r="3.5" fill="#eef2ff"/>
  <circle cx="126" cy="94" r="3.5" fill="#eef2ff"/>
  <path d="M136 116l20 6-8 26-22-7z" fill="#5c6bc0" stroke="#1d2a66" stroke-width="3"/>
  <circle cx="147" cy="131" r="5" fill="#fb8c00"/>
  <circle cx="38" cy="64" r="4" fill="#ffe38d"/>
  <circle cx="60" cy="44" r="4" fill="#fb8c00"/>
  <circle cx="180" cy="58" r="4" fill="#ffe38d"/>
  <circle cx="161" cy="40" r="4" fill="#fb8c00"/>
  <path d="M46 46l3 7 7 3-7 3-3 7-3-7-7-3 7-3z" fill="#fff3c4"/>
  <path d="M173 72l3 7 7 3-7 3-3 7-3-7-7-3 7-3z" fill="#fff3c4"/>
</svg>
