<svg xmlns="http://www.w3.org/2000/svg" viewBox="0 0 220 220" role="img" aria-labelledby="title desc">
  <title id="title">Trace the Firefly neutral pose</title>
  <desc id="desc">A friendly indigo firefly mascot with orange glow, glasses, scarf, and satchel.</desc>
  <defs>
    <linearGradient id="wing" x1="0" x2="1" y1="0" y2="1">
      <stop offset="0%" stop-color="#e7ecff" stop-opacity="0.95"/>
      <stop offset="100%" stop-color="#c9d4ff" stop-opacity="0.75"/>
    </linearGradient>
    <radialGradient id="glow" cx="50%" cy="50%" r="50%">
      <stop offset="0%" stop-color="#ffd66b"/>
      <stop offset="100%" stop-color="#fb8c00"/>
    </radialGradient>
  </defs>
  <ellipse cx="70" cy="98" rx="30" ry="42" fill="url(#wing)" stroke="#93a5e8" stroke-width="3"/>
  <ellipse cx="150" cy="98" rx="30" ry="42" fill="url(#wing)" stroke="#93a5e8" stroke-width="3"/>
  <ellipse cx="110" cy="115" rx="56" ry="63" fill="#3949ab"/>
  <ellipse cx="110" cy="148" rx="42" ry="38" fill="url(#glow)"/>
  <circle cx="110" cy="68" r="33" fill="#3949ab"/>
  <circle cx="97" cy="65" r="15" fill="#fff"/>
  <circle cx="123" cy="65" r="15" fill="#fff"/>
  <circle cx="97" cy="66" r="7" fill="#1d2a66"/>
  <circle cx="123" cy="66" r="7" fill="#1d2a66"/>
  <circle cx="97" cy="66" r="2.5" fill="#fff"/>
  <circle cx="123" cy="66" r="2.5" fill="#fff"/>
  <path d="M97 86c5 6 21 6 26 0" fill="none" stroke="#1d2a66" stroke-linecap="round" stroke-width="4"/>
  <circle cx="97" cy="65" r="18" fill="none" stroke="#f5f7ff" stroke-width="4"/>
  <circle cx="123" cy="65" r="18" fill="none" stroke="#f5f7ff" stroke-width="4"/>
  <line x1="115" y1="65" x2="105" y2="65" stroke="#f5f7ff" stroke-width="4"/>
  <path d="M96 40c-8-16-19-19-27-17" fill="none" stroke="#3949ab" stroke-linecap="round" stroke-width="4"/>
  <path d="M124 40c8-16 19-19 27-17" fill="none" stroke="#3949ab" stroke-linecap="round" stroke-width="4"/>
  <circle cx="68" cy="23" r="5" fill="#fb8c00"/>
  <circle cx="152" cy="23" r="5" fill="#fb8c00"/>
  <path d="M72 103c-13 10-18 23-19 33" fill="none" stroke="#3949ab" stroke-linecap="round" stroke-width="8"/>
  <path d="M148 103c13 10 18 23 19 33" fill="none" stroke="#3949ab" stroke-linecap="round" stroke-width="8"/>
  <path d="M92 101c-9 16-11 31-10 44" fill="none" stroke="#3949ab" stroke-linecap="round" stroke-width="8"/>
  <path d="M128 101c9 16 11 31 10 44" fill="none" stroke="#3949ab" stroke-linecap="round" stroke-width="8"/>
  <path d="M82 92c17 10 41 10 58 0" fill="none" stroke="#fb8c00" stroke-width="8"/>
  <circle cx="94" cy="92" r="3.5" fill="#eef2ff"/>
  <circle cx="110" cy="92" r="3.5" fill="#eef2ff"/>
  <circle cx="126" cy="92" r="3.5" fill="#eef2ff"/>
  <path d="M136 114l20 6-8 26-22-7z" fill="#5c6bc0" stroke="#1d2a66" stroke-width="3"/>
  <circle cx="147" cy="129" r="5" fill="#fb8c00"/>
</svg>
